<mxfile host="65bd71144e" modified="2020-11-19T04:02:51.537Z" agent="5.0 (X11; Linux x86_64) AppleWebKit/537.36 (KHTML, like Gecko) Code/1.51.1 Chrome/83.0.4103.122 Electron/9.3.3 Safari/537.36" etag="Da2DzIJl_8hkZFXIMUh_" version="13.6.5">
    <diagram id="wluoGgLHRJh-rVMzDbbb" name="Page-1">
        <mxGraphModel dx="564" dy="182" grid="1" gridSize="10" guides="1" tooltips="1" connect="1" arrows="1" fold="1" page="1" pageScale="1" pageWidth="827" pageHeight="1169" math="0" shadow="0">
            <root>
                <mxCell id="0"/>
                <mxCell id="1" parent="0"/>
                <mxCell id="10" value="&lt;meta charset=&quot;utf-8&quot; style=&quot;font-size: 20px;&quot;&gt;&lt;span class=&quot;js-about-item-abstr&quot; style=&quot;font-size: 20px;&quot;&gt;Ɛ&lt;/span&gt;" style="edgeStyle=orthogonalEdgeStyle;rounded=0;orthogonalLoop=1;jettySize=auto;html=1;entryX=0;entryY=0.5;entryDx=0;entryDy=0;fontSize=20;" parent="1" source="2" target="3" edge="1">
                    <mxGeometry relative="1" as="geometry">
                        <mxPoint as="offset"/>
                    </mxGeometry>
                </mxCell>
                <mxCell id="2" value="A" style="ellipse;whiteSpace=wrap;html=1;aspect=fixed;fontStyle=1;fontSize=20;" parent="1" vertex="1">
                    <mxGeometry x="74" y="120" width="80" height="80" as="geometry"/>
                </mxCell>
                <mxCell id="11" value="1" style="edgeStyle=orthogonalEdgeStyle;rounded=0;orthogonalLoop=1;jettySize=auto;html=1;exitX=1;exitY=0.5;exitDx=0;exitDy=0;entryX=0;entryY=0.5;entryDx=0;entryDy=0;fontSize=20;" parent="1" source="3" target="4" edge="1">
                    <mxGeometry relative="1" as="geometry">
                        <mxPoint as="offset"/>
                    </mxGeometry>
                </mxCell>
                <mxCell id="3" value="B" style="ellipse;whiteSpace=wrap;html=1;aspect=fixed;fontStyle=1;fontSize=20;" parent="1" vertex="1">
                    <mxGeometry x="194" y="120" width="80" height="80" as="geometry"/>
                </mxCell>
                <mxCell id="12" value="&lt;meta charset=&quot;utf-8&quot; style=&quot;font-size: 20px;&quot;&gt;&lt;span class=&quot;js-about-item-abstr&quot; style=&quot;font-size: 20px;&quot;&gt;Ɛ&lt;/span&gt;" style="edgeStyle=orthogonalEdgeStyle;rounded=0;orthogonalLoop=1;jettySize=auto;html=1;exitX=1;exitY=0.5;exitDx=0;exitDy=0;fontSize=20;" parent="1" source="4" target="5" edge="1">
                    <mxGeometry relative="1" as="geometry"/>
                </mxCell>
                <mxCell id="4" value="C" style="ellipse;whiteSpace=wrap;html=1;aspect=fixed;fontStyle=1;fontSize=20;" parent="1" vertex="1">
                    <mxGeometry x="314" y="120" width="80" height="80" as="geometry"/>
                </mxCell>
                <mxCell id="13" value="0" style="edgeStyle=orthogonalEdgeStyle;rounded=0;orthogonalLoop=1;jettySize=auto;html=1;exitX=1;exitY=0.5;exitDx=0;exitDy=0;entryX=0;entryY=0.5;entryDx=0;entryDy=0;fontSize=20;" parent="1" source="5" target="6" edge="1">
                    <mxGeometry relative="1" as="geometry"/>
                </mxCell>
                <mxCell id="5" value="D" style="ellipse;whiteSpace=wrap;html=1;aspect=fixed;fontStyle=1;fontSize=20;" parent="1" vertex="1">
                    <mxGeometry x="434" y="120" width="80" height="80" as="geometry"/>
                </mxCell>
                <mxCell id="14" value="&lt;meta charset=&quot;utf-8&quot; style=&quot;font-size: 20px;&quot;&gt;&lt;span class=&quot;js-about-item-abstr&quot; style=&quot;font-size: 20px;&quot;&gt;Ɛ&lt;/span&gt;" style="edgeStyle=orthogonalEdgeStyle;rounded=0;orthogonalLoop=1;jettySize=auto;html=1;exitX=1;exitY=0.5;exitDx=0;exitDy=0;entryX=0;entryY=0.5;entryDx=0;entryDy=0;fontSize=20;" parent="1" source="6" target="7" edge="1">
                    <mxGeometry relative="1" as="geometry"/>
                </mxCell>
                <mxCell id="6" value="E" style="ellipse;whiteSpace=wrap;html=1;aspect=fixed;fontStyle=1;fontSize=20;" parent="1" vertex="1">
                    <mxGeometry x="554" y="120" width="80" height="80" as="geometry"/>
                </mxCell>
                <mxCell id="7" value="6" style="ellipse;whiteSpace=wrap;html=1;aspect=fixed;fontStyle=1;fontSize=20;" parent="1" vertex="1">
                    <mxGeometry x="674" y="120" width="80" height="80" as="geometry"/>
                </mxCell>
                <mxCell id="8" value="&lt;meta charset=&quot;utf-8&quot; style=&quot;font-size: 20px;&quot;&gt;&lt;span class=&quot;js-about-item-abstr&quot; style=&quot;font-size: 20px;&quot;&gt;Ɛ&lt;/span&gt;" style="curved=1;endArrow=classic;html=1;exitX=0.5;exitY=0;exitDx=0;exitDy=0;entryX=0.5;entryY=0;entryDx=0;entryDy=0;fontSize=20;" parent="1" source="2" target="7" edge="1">
                    <mxGeometry x="-0.0592" y="-29" width="50" height="50" relative="1" as="geometry">
                        <mxPoint x="244" y="80" as="sourcePoint"/>
                        <mxPoint x="294" y="30" as="targetPoint"/>
                        <Array as="points">
                            <mxPoint x="344" y="30"/>
                        </Array>
                        <mxPoint as="offset"/>
                    </mxGeometry>
                </mxCell>
                <mxCell id="15" value="&lt;meta charset=&quot;utf-8&quot; style=&quot;font-size: 20px;&quot;&gt;&lt;span class=&quot;js-about-item-abstr&quot; style=&quot;font-size: 20px;&quot;&gt;Ɛ&lt;/span&gt;" style="curved=1;endArrow=classic;html=1;exitX=0.5;exitY=1;exitDx=0;exitDy=0;entryX=0.5;entryY=1;entryDx=0;entryDy=0;fontSize=20;" parent="1" source="6" target="3" edge="1">
                    <mxGeometry width="50" height="50" relative="1" as="geometry">
                        <mxPoint x="394" y="290" as="sourcePoint"/>
                        <mxPoint x="444" y="240" as="targetPoint"/>
                        <Array as="points">
                            <mxPoint x="534" y="230"/>
                            <mxPoint x="484" y="250"/>
                            <mxPoint x="414" y="250"/>
                            <mxPoint x="364" y="250"/>
                            <mxPoint x="304" y="240"/>
                        </Array>
                    </mxGeometry>
                </mxCell>
                <mxCell id="16" value="F" style="ellipse;whiteSpace=wrap;html=1;aspect=fixed;fontSize=20;fontStyle=1" parent="1" vertex="1">
                    <mxGeometry x="679" y="125" width="70" height="70" as="geometry"/>
                </mxCell>
                <mxCell id="17" value="" style="endArrow=classic;html=1;entryX=0;entryY=0.5;entryDx=0;entryDy=0;fontSize=20;" parent="1" target="2" edge="1">
                    <mxGeometry width="50" height="50" relative="1" as="geometry">
                        <mxPoint x="40" y="160" as="sourcePoint"/>
                        <mxPoint x="410" y="270" as="targetPoint"/>
                    </mxGeometry>
                </mxCell>
            </root>
        </mxGraphModel>
    </diagram>
</mxfile>